<svg version="1" xmlns="http://www.w3.org/2000/svg" width="933.333" height="933.333" viewBox="0 0 700.000000 700.000000"><path d="M0 24.7v24.6l2.7-2.4c3-2.6 10.5-9.5 17-15.5 2.2-2.2 8.3-7.7 13.4-12.4 5-4.7 11.7-10.8 14.8-13.7L53.5.1 26.8 0H0v24.7zM133.5 4.7c-2.7 2.5-9 8.3-14 12.9-4.9 4.5-11.1 10.2-13.6 12.6-2.6 2.3-9.5 8.8-15.5 14.3C84.5 50 76.5 57.4 72.6 61c-10.2 9.5-11.9 11-17.2 15.9-2.7 2.5-8 7.4-11.9 11-3.8 3.6-12.4 11.6-18.9 17.6-6.6 6.1-14.8 13.7-18.3 17l-6.4 6 .3 47.2.3 47.1 5-4.5c5.6-5.1 25.4-23.4 29.5-27.3 2.2-2.1 10.2-9.5 26-24 1.5-1.4 7.6-7 13.6-12.6 6-5.5 12.1-11.2 13.5-12.5 6.5-5.9 27.5-25.4 36.9-34.2 3.1-2.9 10.3-9.6 16.1-14.9 5.8-5.4 11.9-11 13.5-12.5 6.1-5.7 26-24.1 28.9-26.8 1.7-1.5 7.3-6.7 12.5-11.5s10.9-10 12.5-11.5c1.7-1.6 8.1-7.5 14.3-13.4 6.2-5.8 12.7-11.6 14.3-13 1.6-1.3 2.9-2.8 2.9-3.2 0-.5-22.8-.9-50.7-.9l-50.8.1-5 4.6zM324.8.8c-.1.5-3.9 4.2-8.3 8.2-4.4 4.1-13.6 12.6-20.4 18.9-6.8 6.4-12.9 12-13.5 12.6-5.3 4.8-28.3 26-32.6 30.1-3 2.8-6.8 6.4-8.5 7.9-4.8 4.3-25.4 23.4-44 40.7-3.3 3.1-7.4 6.9-9.1 8.5-1.7 1.5-8 7.3-14 12.9-6 5.5-12.2 11.3-13.9 12.8-1.6 1.5-7.7 7.1-13.4 12.4-5.7 5.4-11.6 10.8-13.1 12.2-19.1 17.6-24.8 22.9-27 25-1.5 1.4-7.5 7-13.5 12.5-5.9 5.5-12 11.1-13.5 12.5-1.5 1.4-7.6 7-13.5 12.5-6 5.5-12.1 11.1-13.5 12.5-2.7 2.6-22.3 20.7-26.9 24.9-1.4 1.3-5.6 5.1-9.2 8.5-3.6 3.3-8.9 8.3-11.7 10.9L0 302.1V397.4l4.7-4.4c2.6-2.5 5.2-5 5.8-5.5 1-.8 13.5-12.4 25.9-23.9 1.7-1.6 7.8-7.2 13.5-12.5s12-11.1 14-13c5.5-5 24-22.3 27.1-25.1 1.5-1.4 7.3-6.8 13-12s11.8-10.9 13.5-12.5c6.4-5.9 23.1-21.4 26-24 1.7-1.5 8.4-7.8 14.9-13.9 6.5-6.1 12.7-11.8 13.6-12.6 1-.8 6.8-6.2 13.1-12 6.2-5.8 14.5-13.4 18.3-17 3.9-3.6 10.7-9.9 15.1-14 12.8-11.9 17.8-16.6 21-19.5 1.7-1.5 7.3-6.7 12.5-11.5s10.9-10 12.5-11.5c1.7-1.5 8.4-7.8 15-13.9 6.6-6.2 15.4-14.3 19.5-18.1 4.1-3.8 8-7.4 8.6-8 .6-.5 6-5.5 11.9-11 6-5.5 14.3-13.2 18.4-17 4.1-3.9 8.7-8.1 10.2-9.5 1.5-1.4 7.4-6.8 13.1-12.1l10.3-9.7V.5L348.3.2c-12.7-.1-23.3.2-23.5.6zM425 161v161h30.5c28.3 0 30.5-.1 30.6-1.8 0-.9.1-28.4.1-61 .1-41.8.4-59.2 1.2-59.3 10-.5 74.3.2 77.4.9 6.5 1.5 10.9 5 14 11.2l2.7 5.5.2 50c.1 27.5.2 51 .2 52.2l.1 2.3h61v-57.8c-.1-61-.4-65.2-4.8-73.9-2.6-5-10.2-12.6-15.1-15-2-.9-6.3-2.4-9.6-3.3l-5.9-1.7-.1-3.9c0-3.6.4-4.1 4.1-6 15.7-7.9 25.3-17.3 32-31 5.6-11.4 7.4-20.7 7.4-37.2 0-19.5-2.3-30.6-8.9-44.2-4.9-10.1-6.2-11.9-15.1-21.3-9.8-10.4-24.1-19-38.6-23.3-3.2-1-6.6-2-7.4-2.3-.8-.3-36.3-.6-78.7-.8L425-.1V161zM559.5 58c12.3 3.2 21.4 10.7 26.9 22 2.8 6 3.1 7.4 3.2 17.7.4 24.2-8.2 36.6-28.9 42-5.1 1.3-12.2 1.6-40.3 1.7l-34.1.1.2-42.5c.1-23.4.3-42.6.3-42.6.1-.1 15.4 0 34 .1 23.9.1 35.2.6 38.7 1.5zM366.5 136.7c-2.7 2.5-7 6.4-9.5 8.7-19 17.5-39.7 36.7-46 42.6-2.6 2.5-9 8.3-14.1 13-5.1 4.7-10.9 10-12.8 11.9-2 1.8-8.5 7.9-14.5 13.5-6.1 5.5-11.7 10.8-12.6 11.6-.9.8-6.8 6.2-13 12-6.3 5.8-11.7 10.7-12 11-.3.3-3.9 3.7-8 7.5-4.2 3.9-13 12-19.5 18.1-6.6 6.1-13.3 12.3-15 13.8-10.7 9.9-27.1 25.1-44 40.8-3.3 3.1-7.3 6.9-9 8.4-1.6 1.5-5.7 5.2-9 8.3-13.6 12.6-29.2 27-31.6 29.2-1.5 1.3-7.5 6.9-13.5 12.5s-12.1 11.2-13.5 12.5c-1.4 1.3-7.6 7-13.6 12.6-6 5.7-11.9 11.1-13 12-1.1 1-7.6 7-14.4 13.3-6.8 6.3-15.5 14.4-19.4 18-3.8 3.5-7.3 6.9-7.7 7.5-1 1.3-1 94.5 0 94.5.4 0 3.7-2.9 7.3-6.3 5.5-5.2 20.3-18.9 30.9-28.7 1.5-1.4 7.6-7 13.5-12.5s12.2-11.3 13.9-12.8c8.6-7.9 14.8-13.7 21.6-20 4.1-3.9 10-9.3 13-12.1 10-9.2 42.1-39 46-42.6 1.4-1.4 7.3-6.8 13-12 11.1-10.2 10.6-9.8 26.1-24.2 5.7-5.3 11.8-10.8 13.4-12.4 1.7-1.5 8.1-7.5 14.4-13.3 6.3-5.8 12.6-11.7 14.1-13.1 8.1-7.5 23.5-21.7 26.4-24.4 1.8-1.7 7.9-7.4 13.6-12.6 5.7-5.2 11.8-10.9 13.6-12.5 17-15.9 26-24.2 27.4-25.5.9-.8 6.6-6 12.5-11.5s12.2-11.3 13.9-12.9c3.4-3 21.5-19.9 30.5-28.3l5.6-5.1v-47.6V132s-2.2 2.1-5 4.7zM367.5 309.6c-1.6 1.4-5.5 4.9-8.5 7.7-6.5 6-14.1 13.1-29.9 27.7-6.2 5.8-13.1 12.1-15.2 14.1-2.1 1.9-8.4 7.8-14 13S288.5 382.6 287 384c-1.5 1.4-7.2 6.6-12.6 11.7-5.4 5-11.3 10.4-13 12-1.7 1.5-5.5 5.1-8.5 7.8-32.7 30.3-45.9 42.6-51.9 48.2-3 2.8-6.8 6.4-8.5 7.9-1.6 1.5-7.7 7.1-13.5 12.4-5.8 5.3-11.7 10.8-13.1 12.1-3.6 3.2-23.7 21.9-26.3 24.4-1.2 1.1-8 7.4-15.1 14C112.4 545.6 104.4 553 98 559c-1.4 1.4-7.3 6.8-13 12s-11.7 10.8-13.5 12.5c-1.7 1.6-7.4 6.9-12.6 11.7-5.3 4.8-11.1 10.2-13 12-1.9 1.8-8.8 8.2-15.4 14.3-6.5 6-14.4 13.3-17.4 16.1-3.1 2.9-7.3 6.7-9.4 8.6L0 649.6V700h48.5l4.5-4.2c17.2-15.8 28.8-26.5 30.6-28.2 1.1-1.2 6.3-5.9 11.4-10.6 5.1-4.7 10.7-9.9 12.5-11.5 10.4-9.8 26.1-24.2 27.7-25.7 1.1-.9 7.3-6.7 13.8-12.8 6.5-6.1 12.7-11.9 13.8-12.8 1-.9 7-6.4 13.2-12.2 6.2-5.8 11.8-11 12.4-11.5 19.7-18.2 28.4-26.2 29.7-27.4.9-.9 6.2-5.9 11.9-11.1 5.7-5.2 11.8-10.9 13.5-12.5 18.9-17.6 25.7-23.9 29.8-27.5 2.6-2.4 6.5-5.9 8.5-7.9 2.1-2 8.7-8.1 14.6-13.6 6-5.5 12.3-11.4 14.1-13 1.7-1.7 7.8-7.3 13.5-12.5 13.9-12.8 14.2-13.1 26.1-24.2 5.7-5.3 12.9-11.9 15.9-14.6l5.5-5v-47.1c0-25.9-.2-47.1-.5-47.1s-1.8 1.2-3.5 2.6zM413.8 379.1c-.8.5-1.5 47-.9 56.6.1 1 3.8 1.3 15.1 1.3h15l.1 4.2V643c-.1 1.3-2.4 1.5-15.1 1.4l-15-.1-.1 3.1c-.1 3.5-.1 49.4 0 51.3.1 1 17.8 1.3 85.2 1.3 83.6 0 85.3 0 92.2-2.1 32.9-9.8 53.1-32 59.3-64.9 1.2-6.8 1.1-27.5-.3-35.5-2.7-15.5-11.4-29.2-25-39.3-8-5.8-11.4-7.7-20.8-11.2-7-2.6-7-2.6-7.3-6.6l-.3-4.1 6.3-2.4c17.2-6.4 32.7-18 39.4-29.6 9.5-16.1 11.8-42 5.8-65.7-6.2-24.4-24-43-50.7-53.1-8.4-3.1-13.6-4.3-26.2-6.1-6.3-.9-155.3-1.1-156.7-.3zm155.1 60.6c16.6 5.6 23.3 15.4 23.3 34.2 0 16.1-5.1 25.8-16.5 31.4-9.6 4.7-16.7 5.6-45.3 5.7l-26 .1V436.8l29.1.4c26.3.4 29.6.6 35.4 2.5zm-7.4 130.7c9.6 1.8 19 6.5 23.7 12 2.6 2.8 5 8.6 6.4 14.7.6 3 .7 16.7 0 19.5-3.2 14.5-10.8 21.8-26.7 25.9-5.1 1.3-11.8 1.7-32.7 1.8-14.5.1-26.7 0-27.1-.3-1-.7-.9-73.4.2-74.1 1.2-.9 51.3-.4 56.2.5zM368.4 482.4c-1.1 1.1-7.2 6.8-13.5 12.6-6.2 5.8-13.8 12.8-16.9 15.6-6.6 6.3-8.7 8.2-22.1 20.4-5.7 5.2-12.2 11.3-14.5 13.5-2.3 2.2-8.4 7.8-13.5 12.5-13.3 12.3-14.3 13.1-26.6 24.7-6.2 5.8-12.1 11.2-13.1 12.1-1.1 1-6.6 6-12.3 11.4-5.7 5.3-11.7 10.8-13.4 12.4-2.8 2.5-18.6 17.1-27.5 25.4-5.4 5.1-23.8 22-27.4 25.4-1.7 1.5-8 7.4-14.1 13.1-6 5.6-13 12.1-15.5 14.3l-4.5 4.1 51.5.1h51.5l4-3.8c2.2-2.1 10.3-9.6 18-16.7 7.7-7.1 14.5-13.4 15.1-14 4.1-3.8 24-22.3 25.4-23.5 2.2-1.9 29.2-26.9 47.5-44 4.4-4.1 11.8-11 16.5-15.4l8.5-7.8v-47c0-25.8-.2-47.1-.5-47.3-.3-.1-1.4.7-2.6 1.9zM363.5 660.8c-3.9 3.7-12.2 11.4-18.5 17.2-6.2 5.8-14.1 13.1-17.4 16.2l-6.1 5.8 25-.3 25-.2v-22.7c0-12.6-.2-22.8-.5-22.8s-3.7 3.1-7.5 6.8z"/></svg>