<svg version="1" xmlns="http://www.w3.org/2000/svg" width="933.333" height="933.333" viewBox="0 0 700.000000 700.000000"><path d="M0 6.7v6.7L6.5 7C10.1 3.5 13 .4 13 .3c0-.2-2.9-.3-6.5-.3H0v6.7zM16.6 16.5L0 33.1v19.1l25.5-25.4C39.5 12.8 51 1 51 .6c0-.3-4-.6-8.9-.6h-9L16.6 16.5zM35.7 35.8L-.1 71.6l.3 9.2.3 9.2 45-45 45-45h-19L35.7 35.8zM54.8 55L0 110v18.9l64-64C99.2 29.7 128 .7 128 .5c0-.3-4.2-.5-9.2-.4h-9.3L54.8 55zM74.2 74.3L-.1 148.6l.3 9.2.3 9.2L84 83.5 167.5 0h-19L74.2 74.3zM93.3 93.3L0 186.6v19.2l102.5-102.5C158.9 46.9 205 .6 205 .4c0-.2-4.2-.4-9.2-.4h-9.3L93.3 93.3zM112.6 112.6L0 225.3v9.3c0 5.2.1 9.4.3 9.4.1 0 55.1-54.9 122.1-122l122-122h-19.1L112.6 112.6zM131.7 131.8L-.1 263.6l.3 9.2.3 9.2 141-141 141-141h-19L131.7 131.8zM151 151L-.1 302.1l.3 9.3.3 9.3 160.3-160.4L321.2 0H302L151 151zM170.2 170.3L0 340.5v19l175-175 175-175V0h-9.5L170.2 170.3zM414.5 160.7v160.8h61V200l2.5-.1c20.4-.4 74.3.3 76.9 1.1 8.2 2.3 14.1 9.1 15.5 17.6.2 1.6.5 25.5.5 53.1l.1 50.3h61.1l-.3-61.3-.3-61.2-2.4-5.5c-4.8-10.8-11.9-17.3-22.9-21.1-3.1-1.1-5.8-1.9-5.9-1.9-2.8.3-3.3-.3-3.3-4.4 0-4.2.1-4.4 4.7-6.6 16.8-7.9 29.7-22.6 35.2-40.1 5.3-16.8 4.7-44.7-1.5-62.3-9.1-26-27.7-43.8-56.5-53.8L569.5.5 492 .2l-77.6-.3.1 160.8zM545 57.2c.8.3 3.1.8 5 1.2 8.8 2.1 17.1 8 22.6 16.3 5.1 7.7 6.6 13.3 6.6 25.1 0 21.9-9.5 34.7-29.5 39.9-9.1 2.4-73.6 2.7-73.8.3-.4-3.9-.5-81.6-.1-82.6.2-.8 9.6-1.1 34-.9 18.5.2 34.4.5 35.2.7zM174.8 204L0 378.8V398l175-175L350 48v-9.5c0-5.2-.1-9.5-.2-9.5-.2.1-78.9 78.8-175 175zM175 242.4L.5 416.9l-.3 9.8-.3 9.8 175.1-175L350.1 86.4l-.3-9.2-.3-9.3L175 242.4zM174.7 280.8L-.1 455.6l.3 9.3.3 9.2L175 299.6l174.5-174.5.3-5.1c.2-2.8.2-7.1 0-9.5l-.3-4.5-174.8 174.8zM175 319.1L.5 493.7l-.3 9.1c-.1 5.1 0 9.2.4 9.2s79.2-78.5 175.1-174.4l174.4-174.4-.3-9.3-.3-9.4L175 319.1zM174.7 357.8L-.1 532.6l.3 9.2.3 9.2 174.8-174.8 174.8-174.8-.3-9.2-.3-9.2-174.8 174.8zM174.3 396.6L0 571v9c0 5 .2 9 .5 9s79-78.5 175-174.5L350 240v-9c0-5-.3-9-.7-8.9-.5 0-79.2 78.6-175 174.5zM174.7 434.8L-.1 609.6l.3 9.2.3 9.2 174.8-174.8 174.8-174.8-.3-9.2-.3-9.2-174.8 174.8zM174.8 472.9L0 647.8v9.1c0 5 .2 9.1.4 9.1.3 0 79-78.6 175-174.6L350 316.8v-9.4c0-5.2-.1-9.4-.2-9.4-.2.1-78.9 78.8-175 174.9zM174.8 511.7L0 686.5v6.8c0 6.6 0 6.7 2.8 6.7 2.3 0 29.4-26.7 175-172.3l172.3-172.3-.3-9.2-.3-9.2-174.7 174.7zM187 537.5L24.5 700h19l153.3-153.3 153.3-153.3-.3-9.2-.3-9.2L187 537.5zM402.4 378.9c-.2.2-.4 13.4-.4 29.2v28.8l15.2.3 15.3.3v103.2c0 91-.2 103.2-1.5 103.5-.8.2-7.7.3-15.2.2l-13.8-.1v55.8l87.3-.3 87.2-.3 6-2.3c29.8-11.2 45.9-27.5 54.1-54.9 2.4-8 2.7-10.4 2.8-25.8.1-18.9-1-25-6.6-36.4-3.7-7.5-12.9-17.8-21.1-23.3-6.4-4.3-19.6-10.8-22.1-10.8s-4.6-3-4.6-6.4c0-3.2.3-3.4 6.3-5.6 12.1-4.4 20.2-9.4 31-19 7.6-6.7 14.7-21.3 16.7-34 1-6.4.7-29.2-.4-34-.3-1.4-.8-3.9-1.2-5.5-2.4-11.8-9.5-25.4-18.3-34.8-13.5-14.5-35.4-24.5-59.7-27.3-6.3-.7-156.3-1.2-157-.5zm149.9 59.6c20.6 4.3 28.8 14.2 28.9 34.5.1 21.9-7 31.1-28.3 36.7-3.7 1-58.9 1.6-59 .6-.3-2.3-.5-71.9-.1-72.6.7-1.4 51.2-.8 58.5.8zm1.2 132.5c17.9 4.6 26.7 14.4 27.8 31.1.9 13-2.1 24.3-8.1 30.7-3.8 4-13.9 8.8-21.7 10.3-5.3 1-54.4 2-57 1.2-.8-.3-1.3-63-.6-73.4.1-1.5 2.9-1.6 27.4-1.4 18.1.1 28.9.6 32.2 1.5zM206.6 556.5l-142.9 143 9.2.3 9.3.3 133.9-134 134-133.9-.3-9.4-.3-9.3-142.9 143zM225.5 576l-124 124h19l114.8-114.8 114.8-114.8-.3-9.2-.3-9.2-124 124zM244.3 595.6L140 700h19.1l95.4-95.5L350 509v-9c0-4.9-.3-9-.7-8.9-.5 0-47.7 47.1-105 104.5zM264 614.5L178.5 700h19l76.3-76.3 76.3-76.3-.3-9.2-.3-9.2-85.5 85.5zM283.1 633.6L216.8 700h19l57.1-57.1 57.2-57.1-.3-9.3-.3-9.3-66.4 66.4zM302.6 652.6l-46.9 46.9 9.4.3 9.3.3 37.8-37.9 37.9-37.8-.3-9.3-.3-9.3-46.9 46.8zM321.5 672l-28 28h19l18.8-18.8 18.8-18.8-.3-9.2-.3-9.2-28 28zM340.8 691.1c-4.3 4.3-7.8 8.1-7.8 8.4 0 .3 3.8.5 8.5.5h8.5v-8.5c0-4.7-.3-8.4-.7-8.4-.5.1-4.3 3.7-8.5 8z"/></svg>